HIERARCHY
ROOT SpineBase
{
  OFFSET 0.000000 0.000000 0.000000
  CHANNELS 6 Xposition Yposition Zposition Zrotation Xrotation Yrotation
  JOINT SpineMid
  {
    OFFSET 0.000000 28.146914 0.000000
    CHANNELS 3 Zrotation Xrotation Yrotation
    JOINT SpineShoulder
    {
      OFFSET 0.014851 21.056362 -0.593642
      CHANNELS 3 Zrotation Xrotation Yrotation
      JOINT Neck
      {
        OFFSET 0.045280 6.992444 -0.438522
        CHANNELS 3 Zrotation Xrotation Yrotation
        JOINT Head
        {
          OFFSET 3.580905 12.871334 2.834811
          CHANNELS 3 Zrotation Xrotation Yrotation
          End Site
          {
            OFFSET 0 0 0
          }
        }
      }
      JOINT ShoulderLeft
      {
        OFFSET -8.293858 -2.567681 -11.170683
        CHANNELS 3 Zrotation Xrotation Yrotation
        JOINT ElbowLeft
        {
          OFFSET -4.070814 -23.963232 -8.352283
          CHANNELS 3 Zrotation Xrotation Yrotation
          JOINT WristLeft
          {
            OFFSET 2.881938 -22.901391 -4.217810
            CHANNELS 3 Zrotation Xrotation Yrotation
            JOINT HandLeft
            {
              OFFSET -0.734931 -5.188543 0.632661
              CHANNELS 3 Zrotation Xrotation Yrotation
              JOINT HandTipLeft
              {
                OFFSET 1.362317 -8.328837 -0.437824
                CHANNELS 3 Zrotation Xrotation Yrotation
                End Site
                {
                  OFFSET 0 0 0
                }
              }
              JOINT ThumbLeft
              {
                OFFSET 3.933839 2.143505 0.543991
                CHANNELS 3 Zrotation Xrotation Yrotation
                End Site
                {
                  OFFSET 0 0 0
                }
              }
            }
          }
        }
      }
      JOINT ShoulderRight
      {
        OFFSET 7.955520 -5.876920 16.870583
        CHANNELS 3 Zrotation Xrotation Yrotation
        JOINT ElbowRight
        {
          OFFSET 0.953180 -25.423612 6.162406
          CHANNELS 3 Zrotation Xrotation Yrotation
          JOINT WristRight
          {
            OFFSET -0.952251 -25.784823 1.482754
            CHANNELS 3 Zrotation Xrotation Yrotation
            JOINT HandRight
            {
              OFFSET -0.281563 -4.345586 -1.583608
              CHANNELS 3 Zrotation Xrotation Yrotation
              JOINT HandTipRight
              {
                OFFSET 0.573250 -5.553984 -0.312390
                CHANNELS 3 Zrotation Xrotation Yrotation
                End Site
                {
                  OFFSET 0 0 0
                }
              }
              JOINT ThumbRight
              {
                OFFSET -0.133475 -1.018956 -8.404032
                CHANNELS 3 Zrotation Xrotation Yrotation
                End Site
                {
                  OFFSET 0 0 0
                }
              }
            }
          }
        }
      }
    }
  }
  JOINT HipLeft
  {
    OFFSET -2.937462 2.681419 -8.659351
    CHANNELS 3 Zrotation Xrotation Yrotation
    JOINT KneeLeft
    {
      OFFSET -9.134099 -43.316923 -0.695180
      CHANNELS 3 Zrotation Xrotation Yrotation
      JOINT AnkleLeft
      {
        OFFSET -7.144767 -37.414282 9.345662
        CHANNELS 3 Zrotation Xrotation Yrotation
        JOINT FootLeft
        {
          OFFSET 2.967305 -8.197936 -2.975230
          CHANNELS 3 Zrotation Xrotation Yrotation
          End Site
          {
            OFFSET 0 0 0
          }
        }
      }
    }
  }
  JOINT HipRight
  {
    OFFSET 4.577132 -0.870308 3.278144
    CHANNELS 3 Zrotation Xrotation Yrotation
    JOINT KneeRight
    {
      OFFSET -0.237845 -43.841166 4.383925
      CHANNELS 3 Zrotation Xrotation Yrotation
      JOINT AnkleRight
      {
        OFFSET 2.392710 -35.428497 5.913141
        CHANNELS 3 Zrotation Xrotation Yrotation
        JOINT FootRight
        {
          OFFSET 9.234229 -3.970904 -7.901422
          CHANNELS 3 Zrotation Xrotation Yrotation
          End Site
          {
            OFFSET 0 0 0
          }
        }
      }
    }
  }
}
MOTION
Frames: 5
Frame Time: 0.033333
-28.862603 95.444193 302.070706 -7.522703 4.029734 -26.349965 -0.507844 -0.510975 26.339138 -0.204090 -0.467205 -0.357079 7.058974 -1.565226 0.559046 0.000000 0.000000 0.000000 44.448701 9.351391 -16.560675 70.146916 -16.622534 25.595931 -18.307466 -38.209953 75.793262 33.952982 -11.949628 -61.115179 0.000000 0.000000 0.000000 0.000000 0.000000 0.000000 8.145529 6.508279 1.133320 155.269842 28.050709 -64.520809 115.697362 51.108345 22.866033 -22.202458 75.226185 116.927521 0.000000 0.000000 0.000000 0.000000 0.000000 0.000000 18.784532 13.700291 23.414539 -12.517741 -4.886953 1.169195 -7.707525 50.665332 21.421436 0.000000 0.000000 0.000000 15.151994 -2.798812 27.313964 -34.724011 9.833689 -1.050174 1.278937 -28.922724 26.885245 0.000000 0.000000 0.000000
-28.469421 95.644725 301.918962 -8.281928 4.078819 -22.129086 -0.420972 -0.708820 22.107452 -0.150669 -0.550598 -0.384759 7.791755 -2.324004 0.879256 0.000000 0.000000 0.000000 45.393834 9.697296 -16.866442 70.305418 -16.417403 25.689909 -19.878008 -38.320155 75.040885 28.932335 -6.893315 -55.905244 0.000000 0.000000 0.000000 0.000000 0.000000 0.000000 8.231788 1.241620 0.767996 164.311103 28.238030 -113.223609 -130.668396 73.026453 -86.771751 -14.322182 64.248721 87.719290 0.000000 0.000000 0.000000 0.000000 0.000000 0.000000 19.748724 13.210446 19.121271 -11.689226 -6.061579 1.523335 -9.336660 51.080363 22.287129 0.000000 0.000000 0.000000 13.010223 -3.530097 22.874824 -27.286079 6.842082 -1.811268 -12.778317 -35.726267 19.436010 0.000000 0.000000 0.000000
-28.070192 95.885388 301.898290 -8.503569 3.825898 -19.370031 -0.585454 -0.986669 19.298100 -0.160849 -0.643685 -0.406911 6.739192 -2.678434 1.390993 0.000000 0.000000 0.000000 45.945459 10.316043 -17.320205 75.237167 -17.189488 28.097958 -20.290072 -36.663209 78.617044 28.519257 -10.145751 -58.714004 0.000000 0.000000 0.000000 0.000000 0.000000 0.000000 10.194272 -1.010933 1.036380 170.575002 33.284448 -161.580270 -98.415080 26.220072 -112.211864 -11.555032 49.823945 48.943284 0.000000 0.000000 0.000000 0.000000 0.000000 0.000000 20.014998 12.120267 16.530417 -10.987245 -5.099317 1.432253 -16.164398 48.656977 26.561643 0.000000 0.000000 0.000000 11.983452 -4.623387 19.989410 -23.914557 6.402275 -1.627364 -24.302822 -39.914567 5.790604 0.000000 0.000000 0.000000
-27.906022 95.710284 302.078220 -8.748362 3.187420 -18.008241 -0.679954 -1.201088 17.867771 -0.075113 -0.772083 -0.418871 6.024259 -2.573304 1.774750 0.000000 0.000000 0.000000 45.742422 10.940097 -17.597034 84.598255 -17.991394 31.462131 -14.467618 -37.028105 93.295396 32.915154 -13.869750 -74.144952 0.000000 0.000000 0.000000 0.000000 0.000000 0.000000 14.316058 0.493900 1.939054 176.447043 42.586847 162.094523 -96.088127 -8.820391 -111.138830 -13.254405 43.227671 30.361083 0.000000 0.000000 0.000000 0.000000 0.000000 0.000000 19.770839 11.700697 15.217003 -10.046536 -3.858848 1.323526 -13.782959 45.009564 23.440560 0.000000 0.000000 0.000000 11.665704 -4.772611 18.491520 -22.962697 5.625287 -1.707856 -30.943650 -38.713101 -11.332998 0.000000 0.000000 0.000000
-27.659736 95.633119 302.317307 -9.268577 2.335740 -15.712585 -0.767144 -1.330678 15.489655 -0.018497 -0.886960 -0.442312 6.846782 -2.418704 1.966460 0.000000 0.000000 0.000000 46.312103 11.567679 -18.161464 98.032672 -19.803311 39.849963 -7.490099 -19.784334 97.524442 18.877918 -12.288259 -81.888144 0.000000 0.000000 0.000000 0.000000 0.000000 0.000000 14.037466 -1.207351 1.566279 -170.810937 46.453552 136.719071 -99.851367 -33.108839 -115.307254 -15.119734 42.527782 24.265299 0.000000 0.000000 0.000000 0.000000 0.000000 0.000000 19.937692 11.650598 12.796617 -9.269705 -3.387613 1.320759 -13.073417 39.915673 20.979583 0.000000 0.000000 0.000000 11.149755 -5.095761 15.982186 -23.577911 4.760274 -1.925464 -25.174575 -34.291603 -15.960321 0.000000 0.000000 0.000000
